<svg width="210" height="179" viewBox="0 0 210 179" fill="none" xmlns="http://www.w3.org/2000/svg">
<mask id="mask0_447_550" style="mask-type:alpha" maskUnits="userSpaceOnUse" x="0" y="0" width="210" height="179">
<rect width="210" height="179" rx="40" fill="#FFF6E2"/>
</mask>
<g mask="url(#mask0_447_550)">
<path d="M193.252 39.0639C207.958 47.5548 220.191 59.7391 228.74 74.4106C237.29 89.0822 241.86 105.732 241.997 122.712C242.134 139.693 237.834 156.414 229.522 171.222C221.211 186.03 209.176 198.41 194.609 207.138C180.043 215.865 163.449 220.636 146.472 220.98C129.494 221.324 112.721 217.227 97.8133 209.097C82.9054 200.966 70.3795 189.083 61.4757 174.623C52.5718 160.164 47.5987 143.63 47.0488 126.658L47 123.499L47.0488 120.34C47.5948 103.502 52.4947 87.0921 61.2707 72.7111C70.0467 58.3302 82.3993 46.4686 97.1243 38.2828C111.849 30.097 128.444 25.8663 145.291 26.0032C162.138 26.1401 178.662 30.6399 193.252 39.0639ZM144.501 64.9989C142.113 64.9993 139.808 65.876 138.023 67.4629C136.239 69.0498 135.099 71.2365 134.819 73.6082L134.751 74.7489V123.499L134.839 124.776C135.061 126.468 135.723 128.071 136.76 129.427L137.608 130.402L166.858 159.652L167.775 160.451C169.485 161.778 171.587 162.498 173.752 162.498C175.916 162.498 178.018 161.778 179.728 160.451L180.645 159.642L181.454 158.726C182.781 157.016 183.501 154.913 183.501 152.749C183.501 150.585 182.781 148.482 181.454 146.772L180.645 145.856L154.251 119.453V74.7489L154.183 73.6082C153.904 71.2365 152.764 69.0498 150.979 67.4629C149.194 65.876 146.889 64.9993 144.501 64.9989Z" fill="#FFB412" fill-opacity="0.23"/>
</g>
</svg>
