<svg width="248" height="60" viewBox="0 0 248 60" fill="none" xmlns="http://www.w3.org/2000/svg">
<path d="M89.4939 14.3275H92.5407L104.166 43.4899H100.318L96.9505 34.9466H85.004L81.6766 43.4899H77.8281L89.4939 14.3275ZM96.1487 32.0714L91.0173 18.5992L85.7256 32.0714H96.1487ZM107.965 43.4899V14.3275H111.573V43.4899H107.965ZM128.802 14.4918H132.209L135.978 24.637L139.786 14.4918H143.194L138.263 27.1836L143.154 39.2183L152.775 14.3275H156.704L144.797 43.4899H141.67L136.018 29.7302L130.325 43.4899H127.198L115.332 14.3275H119.221L128.882 39.2183L133.733 27.1836L128.802 14.4918ZM166.735 14.3275H169.782L181.408 43.4899H177.559L174.192 34.9466H162.245L158.918 43.4899H155.069L166.735 14.3275ZM173.39 32.0714L168.259 18.5992L162.967 32.0714H173.39Z" fill="#616161"/>
<path d="M199.849 29.0779V43.0873H197.673V36.9113H190.778V43.0873H188.621V29.0779H190.778V34.9381H197.673V29.0779H199.849ZM207.058 43.2846C206.275 43.2846 205.563 43.1464 204.921 42.8702C204.292 42.5807 203.746 42.1929 203.284 41.706C202.822 41.2063 202.462 40.6405 202.205 40.0091C201.962 39.3646 201.839 38.6806 201.839 37.9571C201.839 36.9836 202.058 36.0957 202.494 35.2933C202.931 34.4777 203.541 33.8266 204.324 33.3399C205.107 32.84 206.025 32.5901 207.078 32.5901C208.131 32.5901 209.036 32.84 209.793 33.3399C210.563 33.8266 211.16 34.4711 211.584 35.2736C212.008 36.076 212.22 36.9376 212.22 37.8584C212.22 38.0162 212.213 38.1675 212.2 38.3122C212.188 38.4438 212.175 38.5556 212.162 38.6477H204.093C204.131 39.2528 204.292 39.7855 204.574 40.2459C204.87 40.6933 205.242 41.0485 205.691 41.3114C206.141 41.5615 206.622 41.6863 207.135 41.6863C207.701 41.6863 208.233 41.5417 208.734 41.2522C209.248 40.9627 209.594 40.5813 209.774 40.1078L211.584 40.6405C211.366 41.1403 211.032 41.5941 210.583 42.002C210.146 42.3966 209.626 42.7124 209.023 42.9491C208.419 43.1726 207.765 43.2846 207.058 43.2846ZM204.035 37.2073H210.12C210.082 36.6153 209.915 36.0957 209.62 35.6485C209.338 35.1881 208.972 34.8329 208.522 34.583C208.086 34.3199 207.598 34.1883 207.058 34.1883C206.532 34.1883 206.044 34.3199 205.595 34.583C205.158 34.8329 204.799 35.1881 204.516 35.6485C204.234 36.0957 204.073 36.6153 204.035 37.2073ZM213.216 40.0683C213.216 39.4106 213.396 38.8384 213.755 38.3517C214.127 37.8518 214.635 37.4703 215.277 37.2073C215.918 36.931 216.663 36.7929 217.511 36.7929C217.96 36.7929 218.416 36.8258 218.878 36.8915C219.353 36.9573 219.77 37.0626 220.13 37.2073V36.5561C220.13 35.8326 219.918 35.267 219.494 34.8592C219.07 34.4514 218.46 34.2475 217.665 34.2475C217.1 34.2475 216.567 34.3527 216.066 34.5632C215.565 34.7605 215.032 35.0433 214.468 35.4117L213.755 33.9516C214.423 33.4912 215.09 33.1491 215.758 32.9255C216.438 32.7019 217.151 32.5901 217.896 32.5901C219.244 32.5901 220.303 32.9584 221.073 33.695C221.857 34.4185 222.248 35.4511 222.248 36.7929V40.6405C222.248 40.8906 222.287 41.0682 222.364 41.1733C222.454 41.2784 222.601 41.3376 222.807 41.3509V43.0873C222.614 43.1267 222.441 43.1529 222.287 43.1662C222.133 43.1795 222.004 43.1859 221.901 43.1859C221.452 43.1859 221.112 43.074 220.881 42.8505C220.65 42.627 220.515 42.3636 220.476 42.0612L220.419 41.4693C219.982 42.0479 219.423 42.4953 218.743 42.811C218.063 43.1267 217.376 43.2846 216.682 43.2846C216.015 43.2846 215.418 43.1464 214.891 42.8702C214.365 42.5807 213.954 42.1929 213.659 41.706C213.364 41.2192 213.216 40.6736 213.216 40.0683ZM219.629 40.6997C219.783 40.5286 219.905 40.3579 219.995 40.1867C220.085 40.0157 220.13 39.8644 220.13 39.7329V38.549C219.77 38.4043 219.392 38.2991 218.993 38.2333C218.595 38.1544 218.204 38.1149 217.819 38.1149C217.048 38.1149 216.419 38.2728 215.931 38.5885C215.456 38.9042 215.219 39.3383 215.219 39.8907C215.219 40.1933 215.296 40.4827 215.45 40.7589C215.617 41.0352 215.848 41.2587 216.143 41.4298C216.451 41.6009 216.83 41.6863 217.279 41.6863C217.742 41.6863 218.185 41.5941 218.608 41.4101C219.032 41.226 219.372 40.9893 219.629 40.6997ZM224.837 28.6832H226.956V40.1078C226.956 40.6341 227.033 40.9695 227.187 41.1141C227.341 41.2587 227.534 41.3311 227.765 41.3311C228.022 41.3311 228.259 41.305 228.477 41.2522C228.708 41.1995 228.908 41.1338 229.074 41.0549L229.382 42.7716C229.074 42.9032 228.708 43.0148 228.285 43.107C227.861 43.1992 227.482 43.2451 227.148 43.2451C226.43 43.2451 225.865 43.0413 225.454 42.6334C225.043 42.2126 224.837 41.6336 224.837 40.8971V28.6832ZM236.158 42.5545C235.979 42.6467 235.754 42.7454 235.484 42.8505C235.215 42.9556 234.907 43.0478 234.56 43.1267C234.226 43.2056 233.88 43.2451 233.52 43.2451C233.083 43.2451 232.679 43.1662 232.307 43.0083C231.935 42.8505 231.633 42.6004 231.402 42.2585C231.184 41.9034 231.074 41.4495 231.074 40.8971V34.4448H229.745V32.7677H231.074V29.3738H233.193V32.7677H235.388V34.4448H233.193V40.2064C233.218 40.5616 233.328 40.8246 233.52 40.9957C233.726 41.1669 233.976 41.2522 234.271 41.2522C234.566 41.2522 234.849 41.1995 235.119 41.0944C235.388 40.9893 235.587 40.9035 235.716 40.8379L236.158 42.5545ZM246.658 43.0873H244.539V37.3059C244.539 36.372 244.372 35.6748 244.039 35.2144C243.705 34.754 243.236 34.5238 242.633 34.5238C242.261 34.5238 241.875 34.629 241.477 34.8395C241.079 35.05 240.726 35.3393 240.418 35.7077C240.11 36.0628 239.885 36.4772 239.744 36.9507V43.0873H237.626V28.6832H239.744V34.8395C240.129 34.1423 240.655 33.5964 241.323 33.2017C241.991 32.7939 242.71 32.5901 243.48 32.5901C244.109 32.5901 244.629 32.7019 245.04 32.9255C245.451 33.1491 245.772 33.4583 246.003 33.8529C246.247 34.2344 246.414 34.6816 246.504 35.1946C246.606 35.6945 246.658 36.2272 246.658 36.7929V43.0873Z" fill="#EA3F3F"/>
<path d="M83.2538 55.7013H79.4218L78.5964 57.5839H77.8398L80.9841 50.5369H81.7013L84.8455 57.5839H84.0791L83.2538 55.7013ZM82.9885 55.0973L81.3378 51.3121L79.6871 55.0973H82.9885ZM85.836 50.1141H86.5336V57.5839H85.836V50.1141ZM88.4748 50.1141H89.1724V57.5839H88.4748V50.1141ZM93.8325 50.5369H94.5596V57.5839H93.8325V50.5369ZM99.2834 52.2483C99.9319 52.2483 100.446 52.4428 100.826 52.8322C101.212 53.2148 101.406 53.7753 101.406 54.5134V57.5839H100.708V54.5839C100.708 54.0334 100.574 53.6142 100.305 53.3255C100.036 53.0368 99.6532 52.8926 99.1557 52.8926C98.5987 52.8926 98.1566 53.0638 97.8292 53.406C97.5081 53.7415 97.3477 54.2082 97.3477 54.8054V57.5839H96.6501V52.2886H97.3183V53.2651C97.5081 52.9429 97.7702 52.6945 98.1043 52.5201C98.4447 52.3389 98.8377 52.2483 99.2834 52.2483ZM108.035 50.1141V57.5839H107.367V56.5369C107.157 56.8925 106.879 57.1643 106.532 57.3523C106.191 57.5404 105.804 57.6342 105.372 57.6342C104.888 57.6342 104.449 57.5203 104.056 57.2919C103.663 57.0636 103.355 56.7451 103.132 56.3356C102.909 55.926 102.798 55.4597 102.798 54.9362C102.798 54.4128 102.909 53.9464 103.132 53.5369C103.355 53.1274 103.663 52.8121 104.056 52.5906C104.449 52.3623 104.888 52.2483 105.372 52.2483C105.792 52.2483 106.168 52.3389 106.502 52.5201C106.843 52.6945 107.121 52.953 107.337 53.2953V50.1141H108.035ZM105.431 57C105.792 57 106.116 56.9162 106.404 56.7483C106.699 56.574 106.928 56.3287 107.092 56.0134C107.262 55.6981 107.347 55.3389 107.347 54.9362C107.347 54.5336 107.262 54.1744 107.092 53.8591C106.928 53.5438 106.699 53.3021 106.404 53.1342C106.116 52.9599 105.792 52.8725 105.431 52.8725C105.064 52.8725 104.733 52.9599 104.439 53.1342C104.151 53.3021 103.922 53.5438 103.751 53.8591C103.587 54.1744 103.505 54.5336 103.505 54.9362C103.505 55.3389 103.587 55.6981 103.751 56.0134C103.922 56.3287 104.151 56.574 104.439 56.7483C104.733 56.9162 105.064 57 105.431 57ZM109.978 52.2886H110.676V57.5839H109.978V52.2886ZM110.332 51.1309C110.188 51.1309 110.066 51.0805 109.968 50.9799C109.87 50.8792 109.821 50.7584 109.821 50.6174C109.821 50.4834 109.87 50.3658 109.968 50.2651C110.066 50.1644 110.188 50.1141 110.332 50.1141C110.476 50.1141 110.597 50.1644 110.695 50.2651C110.794 50.3589 110.843 50.4733 110.843 50.6074C110.843 50.7552 110.794 50.8792 110.695 50.9799C110.597 51.0805 110.476 51.1309 110.332 51.1309ZM114.425 52.2483C115.099 52.2483 115.617 52.4227 115.977 52.7718C116.337 53.1141 116.518 53.6243 116.518 54.302V57.5839H115.849V56.7584C115.692 57.0334 115.46 57.2485 115.152 57.4027C114.85 57.5569 114.49 57.6342 114.071 57.6342C113.494 57.6342 113.036 57.4933 112.695 57.2114C112.355 56.9295 112.185 56.557 112.185 56.094C112.185 55.6442 112.342 55.2817 112.656 55.0067C112.977 54.7317 113.485 54.594 114.179 54.594H115.82V54.2718C115.82 53.8156 115.695 53.4697 115.447 53.2349C115.197 52.9933 114.834 52.8725 114.356 52.8725C114.028 52.8725 113.714 52.9297 113.413 53.0436C113.111 53.1511 112.853 53.3021 112.636 53.4966L112.322 52.9631C112.584 52.7348 112.898 52.5604 113.265 52.4396C113.632 52.3119 114.018 52.2483 114.425 52.2483ZM114.179 57.0705C114.572 57.0705 114.909 56.9799 115.191 56.7987C115.473 56.6106 115.682 56.3424 115.82 55.9933V55.1275H114.199C113.314 55.1275 112.872 55.4428 112.872 56.0738C112.872 56.3827 112.987 56.6275 113.216 56.8087C113.445 56.9831 113.766 57.0705 114.179 57.0705ZM130.574 50.5369L128.255 57.5839H127.489L125.474 51.5738L123.45 57.5839H122.694L120.375 50.5369H121.122L123.106 56.5973L125.16 50.5369H125.838L127.862 56.6275L129.876 50.5369H130.574ZM135.866 55.1577H131.543C131.582 55.7082 131.789 56.1544 132.162 56.4966C132.535 56.8321 133.007 57 133.577 57C133.898 57 134.192 56.9428 134.461 56.8289C134.73 56.7081 134.962 56.5337 135.159 56.3054L135.552 56.7685C135.322 57.0503 135.034 57.265 134.687 57.4127C134.347 57.5605 133.97 57.6342 133.557 57.6342C133.027 57.6342 132.555 57.5203 132.142 57.2919C131.736 57.0572 131.418 56.735 131.189 56.3255C130.96 55.916 130.845 55.4529 130.845 54.9362C130.845 54.4196 130.954 53.9565 131.17 53.547C131.392 53.1374 131.694 52.8189 132.074 52.5906C132.46 52.3623 132.892 52.2483 133.371 52.2483C133.849 52.2483 134.278 52.3623 134.658 52.5906C135.037 52.8189 135.336 53.1374 135.552 53.547C135.768 53.9497 135.876 54.4128 135.876 54.9362L135.866 55.1577ZM133.371 52.8624C132.873 52.8624 132.453 53.0267 132.113 53.3557C131.779 53.6779 131.589 54.1007 131.543 54.6242H135.208C135.162 54.1007 134.969 53.6779 134.628 53.3557C134.294 53.0267 133.875 52.8624 133.371 52.8624ZM137.296 50.1141H137.994V57.5839H137.296V50.1141ZM139.935 50.1141H140.632V57.5839H139.935V50.1141ZM145.207 52.2483C145.855 52.2483 146.37 52.4428 146.749 52.8322C147.136 53.2148 147.329 53.7753 147.329 54.5134V57.5839H146.631V54.5839C146.631 54.0334 146.497 53.6142 146.229 53.3255C145.96 53.0368 145.577 52.8926 145.079 52.8926C144.522 52.8926 144.08 53.0638 143.752 53.406C143.432 53.7415 143.271 54.2082 143.271 54.8054V57.5839H142.573V52.2886H143.241V53.2651C143.432 52.9429 143.693 52.6945 144.028 52.5201C144.368 52.3389 144.761 52.2483 145.207 52.2483ZM153.742 55.1577H149.419C149.458 55.7082 149.665 56.1544 150.038 56.4966C150.411 56.8321 150.883 57 151.453 57C151.774 57 152.069 56.9428 152.337 56.8289C152.606 56.7081 152.838 56.5337 153.035 56.3054L153.428 56.7685C153.199 57.0503 152.91 57.265 152.563 57.4127C152.223 57.5605 151.846 57.6342 151.433 57.6342C150.903 57.6342 150.431 57.5203 150.018 57.2919C149.612 57.0572 149.295 56.735 149.065 56.3255C148.836 55.916 148.721 55.4529 148.721 54.9362C148.721 54.4196 148.83 53.9565 149.046 53.547C149.269 53.1374 149.57 52.8189 149.95 52.5906C150.336 52.3623 150.768 52.2483 151.247 52.2483C151.725 52.2483 152.154 52.3623 152.534 52.5906C152.914 52.8189 153.212 53.1374 153.428 53.547C153.644 53.9497 153.752 54.4128 153.752 54.9362L153.742 55.1577ZM151.247 52.8624C150.749 52.8624 150.33 53.0267 149.989 53.3557C149.655 53.6779 149.465 54.1007 149.419 54.6242H153.084C153.038 54.1007 152.845 53.6779 152.504 53.3557C152.17 53.0267 151.751 52.8624 151.247 52.8624ZM156.558 57.6342C156.138 57.6342 155.735 57.5738 155.349 57.453C154.969 57.3254 154.671 57.1679 154.455 56.9799L154.769 56.4161C154.986 56.5905 155.258 56.735 155.585 56.849C155.912 56.9565 156.253 57.0101 156.607 57.0101C157.078 57.0101 157.425 56.9364 157.648 56.7886C157.877 56.6344 157.992 56.4193 157.992 56.1443C157.992 55.9498 157.93 55.7988 157.805 55.6913C157.681 55.5773 157.524 55.4932 157.334 55.4396C157.144 55.3792 156.892 55.322 156.577 55.2685C156.158 55.1879 155.821 55.1074 155.565 55.0268C155.31 54.9395 155.09 54.7953 154.907 54.594C154.73 54.3926 154.642 54.114 154.642 53.7584C154.642 53.3154 154.822 52.953 155.182 52.6711C155.542 52.3893 156.044 52.2483 156.685 52.2483C157.019 52.2483 157.354 52.2954 157.688 52.3893C158.022 52.4766 158.297 52.5938 158.513 52.7416L158.208 53.3154C157.783 53.0134 157.275 52.8624 156.685 52.8624C156.24 52.8624 155.902 52.943 155.673 53.104C155.45 53.2651 155.339 53.4765 155.339 53.7383C155.339 53.9396 155.401 54.1007 155.526 54.2215C155.657 54.3423 155.818 54.4329 156.007 54.4933C156.197 54.5468 156.459 54.604 156.793 54.6644C157.206 54.745 157.537 54.8255 157.786 54.906C158.035 54.9866 158.248 55.1243 158.425 55.3188C158.601 55.5133 158.69 55.7819 158.69 56.1242C158.69 56.5872 158.5 56.9565 158.12 57.2315C157.747 57.5001 157.226 57.6342 156.558 57.6342ZM161.365 57.6342C160.946 57.6342 160.543 57.5738 160.156 57.453C159.777 57.3254 159.478 57.1679 159.262 56.9799L159.576 56.4161C159.793 56.5905 160.065 56.735 160.392 56.849C160.72 56.9565 161.06 57.0101 161.414 57.0101C161.886 57.0101 162.233 56.9364 162.455 56.7886C162.685 56.6344 162.799 56.4193 162.799 56.1443C162.799 55.9498 162.737 55.7988 162.613 55.6913C162.488 55.5773 162.331 55.4932 162.141 55.4396C161.951 55.3792 161.699 55.322 161.384 55.2685C160.965 55.1879 160.628 55.1074 160.372 55.0268C160.117 54.9395 159.898 54.7953 159.714 54.594C159.537 54.3926 159.449 54.114 159.449 53.7584C159.449 53.3154 159.629 52.953 159.989 52.6711C160.35 52.3893 160.851 52.2483 161.492 52.2483C161.827 52.2483 162.161 52.2954 162.495 52.3893C162.829 52.4766 163.104 52.5938 163.32 52.7416L163.015 53.3154C162.59 53.0134 162.082 52.8624 161.492 52.8624C161.047 52.8624 160.71 52.943 160.48 53.104C160.258 53.2651 160.146 53.4765 160.146 53.7383C160.146 53.9396 160.209 54.1007 160.333 54.2215C160.464 54.3423 160.625 54.4329 160.815 54.4933C161.005 54.5468 161.266 54.604 161.601 54.6644C162.013 54.745 162.344 54.8255 162.593 54.906C162.842 54.9866 163.055 55.1243 163.232 55.3188C163.408 55.5133 163.497 55.7819 163.497 56.1242C163.497 56.5872 163.307 56.9565 162.927 57.2315C162.554 57.5001 162.033 57.6342 161.365 57.6342ZM171.819 55.7013H167.987L167.162 57.5839H166.405L169.55 50.5369H170.267L173.411 57.5839H172.645L171.819 55.7013ZM171.554 55.0973L169.903 51.3121L168.253 55.0973H171.554ZM175.739 57.6342C175.32 57.6342 174.917 57.5738 174.53 57.453C174.15 57.3254 173.852 57.1679 173.636 56.9799L173.951 56.4161C174.167 56.5905 174.438 56.735 174.766 56.849C175.094 56.9565 175.434 57.0101 175.788 57.0101C176.26 57.0101 176.607 56.9364 176.83 56.7886C177.059 56.6344 177.173 56.4193 177.173 56.1443C177.173 55.9498 177.111 55.7988 176.987 55.6913C176.862 55.5773 176.705 55.4932 176.515 55.4396C176.325 55.3792 176.073 55.322 175.759 55.2685C175.339 55.1879 175.002 55.1074 174.747 55.0268C174.491 54.9395 174.271 54.7953 174.088 54.594C173.911 54.3926 173.823 54.114 173.823 53.7584C173.823 53.3154 174.003 52.953 174.363 52.6711C174.723 52.3893 175.224 52.2483 175.867 52.2483C176.201 52.2483 176.535 52.2954 176.869 52.3893C177.203 52.4766 177.478 52.5938 177.694 52.7416L177.39 53.3154C176.964 53.0134 176.456 52.8624 175.867 52.8624C175.421 52.8624 175.084 52.943 174.855 53.104C174.632 53.2651 174.521 53.4765 174.521 53.7383C174.521 53.9396 174.583 54.1007 174.707 54.2215C174.838 54.3423 174.998 54.4329 175.189 54.4933C175.379 54.5468 175.641 54.604 175.975 54.6644C176.387 54.745 176.718 54.8255 176.967 54.906C177.216 54.9866 177.429 55.1243 177.606 55.3188C177.783 55.5133 177.871 55.7819 177.871 56.1242C177.871 56.5872 177.681 56.9565 177.301 57.2315C176.928 57.5001 176.407 57.6342 175.739 57.6342ZM180.546 57.6342C180.127 57.6342 179.724 57.5738 179.337 57.453C178.957 57.3254 178.66 57.1679 178.443 56.9799L178.758 56.4161C178.974 56.5905 179.246 56.735 179.573 56.849C179.901 56.9565 180.241 57.0101 180.595 57.0101C181.067 57.0101 181.414 56.9364 181.637 56.7886C181.866 56.6344 181.981 56.4193 181.981 56.1443C181.981 55.9498 181.918 55.7988 181.794 55.6913C181.669 55.5773 181.512 55.4932 181.322 55.4396C181.132 55.3792 180.88 55.322 180.566 55.2685C180.146 55.1879 179.809 55.1074 179.554 55.0268C179.298 54.9395 179.079 54.7953 178.895 54.594C178.718 54.3926 178.63 54.114 178.63 53.7584C178.63 53.3154 178.81 52.953 179.17 52.6711C179.531 52.3893 180.032 52.2483 180.674 52.2483C181.008 52.2483 181.342 52.2954 181.676 52.3893C182.01 52.4766 182.285 52.5938 182.501 52.7416L182.197 53.3154C181.771 53.0134 181.263 52.8624 180.674 52.8624C180.228 52.8624 179.891 52.943 179.662 53.104C179.439 53.2651 179.328 53.4765 179.328 53.7383C179.328 53.9396 179.39 54.1007 179.514 54.2215C179.645 54.3423 179.806 54.4329 179.996 54.4933C180.186 54.5468 180.448 54.604 180.782 54.6644C181.195 54.745 181.525 54.8255 181.774 54.906C182.023 54.9866 182.236 55.1243 182.413 55.3188C182.59 55.5133 182.678 55.7819 182.678 56.1242C182.678 56.5872 182.488 56.9565 182.108 57.2315C181.735 57.5001 181.214 57.6342 180.546 57.6342ZM186.081 57.6342C185.583 57.6342 185.134 57.5203 184.735 57.2919C184.335 57.0572 184.02 56.735 183.791 56.3255C183.562 55.916 183.447 55.4529 183.447 54.9362C183.447 54.4196 183.562 53.9565 183.791 53.547C184.02 53.1374 184.335 52.8189 184.735 52.5906C185.134 52.3623 185.583 52.2483 186.081 52.2483C186.578 52.2483 187.027 52.3623 187.427 52.5906C187.826 52.8189 188.137 53.1374 188.36 53.547C188.589 53.9565 188.704 54.4196 188.704 54.9362C188.704 55.4529 188.589 55.916 188.36 56.3255C188.137 56.735 187.826 57.0572 187.427 57.2919C187.027 57.5203 186.578 57.6342 186.081 57.6342ZM186.081 57C186.447 57 186.775 56.9162 187.063 56.7483C187.358 56.574 187.587 56.3287 187.751 56.0134C187.915 55.6981 187.997 55.3389 187.997 54.9362C187.997 54.5336 187.915 54.1744 187.751 53.8591C187.587 53.5438 187.358 53.3021 187.063 53.1342C186.775 52.9599 186.447 52.8725 186.081 52.8725C185.714 52.8725 185.383 52.9599 185.088 53.1342C184.8 53.3021 184.571 53.5438 184.4 53.8591C184.237 54.1744 184.155 54.5336 184.155 54.9362C184.155 55.3389 184.237 55.6981 184.4 56.0134C184.571 56.3287 184.8 56.574 185.088 56.7483C185.383 56.9162 185.714 57 186.081 57ZM192.27 57.6342C191.759 57.6342 191.301 57.5203 190.894 57.2919C190.495 57.0636 190.181 56.7451 189.951 56.3356C189.722 55.9196 189.607 55.4529 189.607 54.9362C189.607 54.4196 189.722 53.9565 189.951 53.547C190.181 53.1374 190.495 52.8189 190.894 52.5906C191.301 52.3623 191.759 52.2483 192.27 52.2483C192.716 52.2483 193.112 52.3389 193.459 52.5201C193.813 52.6945 194.091 52.953 194.294 53.2953L193.773 53.6577C193.603 53.396 193.387 53.2015 193.125 53.0738C192.863 52.9397 192.578 52.8725 192.27 52.8725C191.897 52.8725 191.559 52.9599 191.258 53.1342C190.963 53.3021 190.731 53.5438 190.56 53.8591C190.397 54.1744 190.315 54.5336 190.315 54.9362C190.315 55.3458 190.397 55.7082 190.56 56.0235C190.731 56.3323 190.963 56.574 191.258 56.7483C191.559 56.9162 191.897 57 192.27 57C192.578 57 192.863 56.9364 193.125 56.8087C193.387 56.6811 193.603 56.4866 193.773 56.2248L194.294 56.5872C194.091 56.9295 193.813 57.1913 193.459 57.3725C193.105 57.5468 192.709 57.6342 192.27 57.6342ZM195.665 52.2886H196.362V57.5839H195.665V52.2886ZM196.018 51.1309C195.874 51.1309 195.753 51.0805 195.655 50.9799C195.557 50.8792 195.507 50.7584 195.507 50.6174C195.507 50.4834 195.557 50.3658 195.655 50.2651C195.753 50.1644 195.874 50.1141 196.018 50.1141C196.163 50.1141 196.284 50.1644 196.382 50.2651C196.48 50.3589 196.529 50.4733 196.529 50.6074C196.529 50.7552 196.48 50.8792 196.382 50.9799C196.284 51.0805 196.163 51.1309 196.018 51.1309ZM200.111 52.2483C200.786 52.2483 201.303 52.4227 201.664 52.7718C202.024 53.1141 202.204 53.6243 202.204 54.302V57.5839H201.536V56.7584C201.379 57.0334 201.146 57.2485 200.838 57.4027C200.537 57.5569 200.177 57.6342 199.758 57.6342C199.181 57.6342 198.723 57.4933 198.382 57.2114C198.041 56.9295 197.871 56.557 197.871 56.094C197.871 55.6442 198.028 55.2817 198.343 55.0067C198.664 54.7317 199.171 54.594 199.866 54.594H201.507V54.2718C201.507 53.8156 201.382 53.4697 201.133 53.2349C200.884 52.9933 200.521 52.8725 200.043 52.8725C199.715 52.8725 199.401 52.9297 199.099 53.0436C198.798 53.1511 198.539 53.3021 198.323 53.4966L198.009 52.9631C198.271 52.7348 198.585 52.5604 198.952 52.4396C199.319 52.3119 199.705 52.2483 200.111 52.2483ZM199.866 57.0705C200.259 57.0705 200.596 56.9799 200.878 56.7987C201.16 56.6106 201.369 56.3424 201.507 55.9933V55.1275H199.885C199.001 55.1275 198.559 55.4428 198.559 56.0738C198.559 56.3827 198.674 56.6275 198.903 56.8087C199.132 56.9831 199.453 57.0705 199.866 57.0705ZM206.821 57.2617C206.69 57.3825 206.526 57.4764 206.329 57.5436C206.14 57.604 205.94 57.6342 205.73 57.6342C205.245 57.6342 204.872 57.5001 204.61 57.2315C204.348 56.963 204.217 56.584 204.217 56.094V52.8926H203.293V52.2886H204.217V51.1309H204.915V52.2886H206.487V52.8926H204.915V56.0537C204.915 56.369 204.99 56.6106 205.141 56.7785C205.298 56.9396 205.521 57.0201 205.809 57.0201C205.953 57.0201 206.09 56.9968 206.221 56.9497C206.359 56.9025 206.477 56.8357 206.575 56.7483L206.821 57.2617ZM208.091 52.2886H208.788V57.5839H208.091V52.2886ZM208.444 51.1309C208.3 51.1309 208.179 51.0805 208.081 50.9799C207.982 50.8792 207.933 50.7584 207.933 50.6174C207.933 50.4834 207.982 50.3658 208.081 50.2651C208.179 50.1644 208.3 50.1141 208.444 50.1141C208.589 50.1141 208.71 50.1644 208.808 50.2651C208.906 50.3589 208.955 50.4733 208.955 50.6074C208.955 50.7552 208.906 50.8792 208.808 50.9799C208.71 51.0805 208.589 51.1309 208.444 51.1309ZM212.842 57.6342C212.344 57.6342 211.895 57.5203 211.496 57.2919C211.096 57.0572 210.782 56.735 210.552 56.3255C210.323 55.916 210.209 55.4529 210.209 54.9362C210.209 54.4196 210.323 53.9565 210.552 53.547C210.782 53.1374 211.096 52.8189 211.496 52.5906C211.895 52.3623 212.344 52.2483 212.842 52.2483C213.34 52.2483 213.789 52.3623 214.188 52.5906C214.588 52.8189 214.899 53.1374 215.121 53.547C215.351 53.9565 215.465 54.4196 215.465 54.9362C215.465 55.4529 215.351 55.916 215.121 56.3255C214.899 56.735 214.588 57.0572 214.188 57.2919C213.789 57.5203 213.34 57.6342 212.842 57.6342ZM212.842 57C213.209 57 213.536 56.9162 213.824 56.7483C214.119 56.574 214.349 56.3287 214.512 56.0134C214.676 55.6981 214.758 55.3389 214.758 54.9362C214.758 54.5336 214.676 54.1744 214.512 53.8591C214.349 53.5438 214.119 53.3021 213.824 53.1342C213.536 52.9599 213.209 52.8725 212.842 52.8725C212.475 52.8725 212.144 52.9599 211.849 53.1342C211.561 53.3021 211.332 53.5438 211.162 53.8591C210.998 54.1744 210.916 54.5336 210.916 54.9362C210.916 55.3389 210.998 55.6981 211.162 56.0134C211.332 56.3287 211.561 56.574 211.849 56.7483C212.144 56.9162 212.475 57 212.842 57ZM219.523 52.2483C220.171 52.2483 220.686 52.4428 221.066 52.8322C221.452 53.2148 221.645 53.7753 221.645 54.5134V57.5839H220.948V54.5839C220.948 54.0334 220.814 53.6142 220.545 53.3255C220.276 53.0368 219.893 52.8926 219.395 52.8926C218.839 52.8926 218.396 53.0638 218.069 53.406C217.748 53.7415 217.587 54.2082 217.587 54.8054V57.5839H216.89V52.2886H217.558V53.2651C217.748 52.9429 218.01 52.6945 218.344 52.5201C218.685 52.3389 219.078 52.2483 219.523 52.2483Z" fill="#616161"/>
<path d="M28.1014 0C43.6213 0 56.2029 12.8906 56.2029 28.7919V32.2411H49.1413L46.4829 25.4053C46.3693 25.1143 46.1705 24.8651 45.9126 24.6916C45.6548 24.518 45.3506 24.428 45.0409 24.434C44.7308 24.44 44.4305 24.5416 44.1794 24.725C43.9286 24.9084 43.7388 25.1652 43.6366 25.4604L38.2706 40.9671L33.3885 20.5003C33.3116 20.18 33.1343 19.893 32.883 19.6824C32.6318 19.4718 32.3199 19.3488 31.9937 19.3312C31.6675 19.3137 31.3446 19.4028 31.0726 19.5852C30.8006 19.7677 30.594 20.0336 30.4838 20.3438L26.3313 32.0921C24.8526 32.09 23.9142 31.8142 22.9203 31.0626C22.6287 30.6969 22.2768 30.3847 21.8802 30.1396L21.7919 30.0495V30.0853C21.1765 29.7272 20.4785 29.5389 19.768 29.5391C19.0576 29.5394 18.3597 29.728 17.7445 30.0865C17.1294 30.445 16.6186 30.9608 16.2634 31.5816C15.9082 32.2025 15.7211 32.9069 15.7211 33.6238C15.7211 34.3407 15.9082 35.045 16.2634 35.6659C16.6186 36.2867 17.1294 36.8025 17.7445 37.161C18.3597 37.5195 19.0576 37.7082 19.768 37.7084C20.4785 37.7087 21.1765 37.5203 21.7919 37.1622V37.198L21.8821 37.1079C22.2565 36.8761 22.5906 36.5843 22.8719 36.2463C23.7929 35.5723 24.6582 35.3423 25.9394 35.3045H27.3503C27.6634 35.3043 27.9688 35.2066 28.2246 35.0245C28.4804 34.8424 28.6741 34.585 28.7792 34.2876L31.6306 26.2201L36.5269 46.7472C36.6039 47.0686 36.782 47.3565 37.0343 47.5675C37.2867 47.7785 37.5999 47.9009 37.9271 47.9174C38.2544 47.934 38.5783 47.8429 38.8502 47.6585C39.122 47.4737 39.3275 47.2055 39.4355 46.8934L45.1529 30.3724L46.6936 34.3324C46.8048 34.6189 46.9993 34.8649 47.2513 35.0383C47.5032 35.2117 47.8011 35.3044 48.1061 35.3045H56.2029V57.5839H28.1014C12.5814 57.5839 0 44.6931 0 28.7919C0 12.8906 12.5814 0 28.1014 0Z" fill="#EA3F3F"/>
</svg>
