<svg width="164" height="179" viewBox="0 0 164 179" fill="none" xmlns="http://www.w3.org/2000/svg">
<mask id="mask0_447_540" style="mask-type:alpha" maskUnits="userSpaceOnUse" x="0" y="0" width="164" height="179">
<rect width="164" height="179" rx="40" fill="#EAF9FE"/>
</mask>
<g mask="url(#mask0_447_540)">
<path fill-rule="evenodd" clip-rule="evenodd" d="M94.76 18.2252C98.2677 16.7987 102.1 16.6127 105.711 17.6938L107.24 18.2252L169.462 43.5865C172.617 44.8723 175.371 47.1062 177.403 50.0278C179.434 52.9494 180.66 56.4384 180.938 60.0882L181 61.6824V113.497C181 129.152 177.111 144.517 169.743 157.97C162.376 171.423 151.803 182.464 139.142 189.928L136.778 191.271L106.964 207.474C105.323 208.364 103.53 208.878 101.697 208.981C99.8651 209.084 98.033 208.775 96.3156 208.073L95.0356 207.474L65.2222 191.271C52.3388 184.27 41.4336 173.617 33.6578 160.438C25.8821 147.259 21.5243 132.043 21.0444 116.395L21 113.497V61.6824C21.0001 58.0219 21.9567 54.4368 23.7585 51.3443C25.5604 48.2519 28.1333 45.7793 31.1778 44.2145L32.5378 43.5865L94.76 18.2252Z" fill="white" fill-opacity="0.15"/>
<path fill-rule="evenodd" clip-rule="evenodd" d="M94.76 18.2253C98.2678 16.7988 102.1 16.6128 105.711 17.6939L107.24 18.2253L169.462 43.5866C172.617 44.8724 175.371 47.1063 177.403 50.0279C179.434 52.9495 180.66 56.4385 180.938 60.0883L181 61.6824V113.497C181 129.152 177.111 144.518 169.743 157.97C162.376 171.423 151.803 182.464 139.142 189.928L136.778 191.271L106.964 207.474C105.323 208.365 103.53 208.878 101.697 208.981C99.8652 209.084 98.033 208.775 96.3156 208.073L95.0356 207.474L65.2222 191.271C52.3388 184.27 41.4336 173.617 33.6578 160.438C25.8821 147.259 21.5243 132.043 21.0444 116.395L21 113.497V61.6824C21.0001 58.022 21.9567 54.4369 23.7585 51.3444C25.5604 48.252 28.1333 45.7794 31.1778 44.2146L32.5378 43.5866L94.76 18.2253ZM131.516 80.387L90.6444 124.81L74.9289 107.729C73.261 105.917 70.9993 104.9 68.6413 104.901C66.2833 104.902 64.0223 105.921 62.3556 107.734C60.6888 109.547 59.7529 112.005 59.7538 114.568C59.7546 117.131 60.6921 119.588 62.36 121.4L83.7289 144.626C84.6369 145.613 85.715 146.397 86.9016 146.931C88.0882 147.465 89.36 147.74 90.6444 147.74C91.9289 147.74 93.2007 147.465 94.3873 146.931C95.5739 146.397 96.652 145.613 97.56 144.626L144.084 94.0483C144.933 93.1571 145.611 92.091 146.076 90.9122C146.542 89.7335 146.788 88.4657 146.798 87.1829C146.808 85.9 146.583 84.6278 146.136 83.4405C145.689 82.2531 145.029 81.1744 144.195 80.2673C143.36 79.3601 142.368 78.6427 141.275 78.1569C140.183 77.6712 139.012 77.4267 137.832 77.4379C136.652 77.449 135.485 77.7155 134.401 78.2219C133.316 78.7282 132.336 79.4642 131.516 80.387Z" fill="#3176E9" fill-opacity="0.15"/>
</g>
</svg>
