<svg width="67" height="67" viewBox="0 0 67 67" fill="none" xmlns="http://www.w3.org/2000/svg">
<path d="M33.25 64.75V14.35C33.25 8.4091 33.25 5.4418 31.4041 3.5959C29.5582 1.75 26.5909 1.75 20.65 1.75H14.35C8.4091 1.75 5.4418 1.75 3.5959 3.5959C1.75 5.4418 1.75 8.4091 1.75 14.35V52.15C1.75 58.0909 1.75 61.0582 3.5959 62.9041C5.4418 64.75 8.4091 64.75 14.35 64.75H33.25ZM33.25 64.75H52.15C58.0909 64.75 61.0582 64.75 62.9041 62.9041C64.75 61.0582 64.75 58.0909 64.75 52.15V33.25C64.75 27.3091 64.75 24.3418 62.9041 22.4959C61.0582 20.65 58.0909 20.65 52.15 20.65H33.25" stroke="#EA3F3F" stroke-width="3.5"/>
<path d="M53.7273 45.85H44.2773M53.7273 33.25H44.2773M22.2273 39.55H12.7773M22.2273 26.95H12.7773M22.2273 14.35H12.7773" stroke="#EA3F3F" stroke-width="3.5" stroke-linecap="round"/>
</svg>
