<svg width="57" height="58" viewBox="0 0 57 58" fill="none" xmlns="http://www.w3.org/2000/svg">
<path d="M28.1014 0C43.6213 0 56.2029 12.8906 56.2029 28.7919V32.2411H49.1413L46.4829 25.4053C46.3693 25.1143 46.1705 24.8651 45.9126 24.6916C45.6548 24.518 45.3506 24.428 45.0409 24.434C44.7308 24.44 44.4305 24.5416 44.1794 24.725C43.9286 24.9084 43.7388 25.1652 43.6366 25.4604L38.2706 40.9671L33.3885 20.5003C33.3116 20.18 33.1343 19.893 32.883 19.6824C32.6318 19.4718 32.3199 19.3488 31.9937 19.3312C31.6675 19.3137 31.3446 19.4028 31.0726 19.5852C30.8006 19.7677 30.594 20.0336 30.4838 20.3438L26.3313 32.0921C24.8526 32.09 23.9142 31.8142 22.9203 31.0626C22.6287 30.6969 22.2768 30.3847 21.8802 30.1396L21.7919 30.0495V30.0853C21.1765 29.7272 20.4785 29.5389 19.768 29.5391C19.0576 29.5394 18.3597 29.728 17.7445 30.0865C17.1294 30.445 16.6186 30.9608 16.2634 31.5816C15.9082 32.2025 15.7211 32.9069 15.7211 33.6238C15.7211 34.3407 15.9082 35.045 16.2634 35.6659C16.6186 36.2867 17.1294 36.8025 17.7445 37.161C18.3597 37.5195 19.0576 37.7082 19.768 37.7084C20.4785 37.7087 21.1765 37.5203 21.7919 37.1622V37.198L21.8821 37.1079C22.2565 36.8761 22.5906 36.5843 22.8719 36.2463C23.7929 35.5723 24.6582 35.3423 25.9394 35.3045H27.3503C27.6634 35.3043 27.9688 35.2066 28.2246 35.0245C28.4804 34.8424 28.6741 34.585 28.7792 34.2876L31.6306 26.2201L36.5269 46.7472C36.6039 47.0686 36.782 47.3565 37.0343 47.5675C37.2867 47.7785 37.5999 47.9009 37.9271 47.9174C38.2544 47.934 38.5783 47.8429 38.8502 47.6585C39.122 47.4737 39.3275 47.2055 39.4355 46.8934L45.1529 30.3724L46.6936 34.3324C46.8048 34.6189 46.9993 34.8649 47.2513 35.0383C47.5032 35.2117 47.8011 35.3044 48.1061 35.3045H56.2029V57.5839H28.1014C12.5814 57.5839 0 44.6931 0 28.7919C0 12.8906 12.5814 0 28.1014 0Z" fill="#EA3F3F"/>
</svg>
