<svg xmlns="http://www.w3.org/2000/svg" fill="none" viewBox="0 0 1434.24 447.5767195767196" style="max-height: 500px" width="1434.24" height="447.5767195767196">
<rect fill="#252525" height="450" width="1440"/>
<path fill-opacity="0.03" fill="white" d="M225 166H267.4L377.8 450H330.6L300.6 372.8H191L161.4 450H113.8L225 166ZM291.8 339.6L246.2 215.2L199 339.6H291.8ZM412.922 450V166H457.722V450H412.922ZM622.706 167.2H664.706L699.906 263.6L735.506 167.2H777.506L728.706 293.6L771.106 398L859.506 166H908.706L792.306 450H753.506L700.306 322.8L646.706 450H607.506L491.506 166H540.306L629.106 398L671.506 293.6L622.706 167.2ZM1000.78 166H1043.18L1153.58 450H1106.38L1076.38 372.8H966.781L937.181 450H889.581L1000.78 166ZM1067.58 339.6L1021.98 215.2L974.781 339.6H1067.58Z"/>
</svg>