<svg width="460" height="102" viewBox="0 0 460 102" fill="none" xmlns="http://www.w3.org/2000/svg">
<path d="M165.994 24.3569H171.645L193.209 73.933H186.07L179.824 59.4093H157.666L151.494 73.933H144.355L165.994 24.3569ZM178.337 54.5215L168.819 31.6188L159.004 54.5215H178.337ZM200.255 73.933V24.3569H206.947V73.933H200.255ZM238.903 24.6362H245.224L252.213 41.8831L259.277 24.6362H265.598L256.452 46.2123L265.524 66.6712L283.37 24.3569H290.657L268.572 73.933H262.772L252.288 50.5415L241.729 73.933H235.929L213.919 24.3569H221.132L239.052 66.6712L248.049 46.2123L238.903 24.6362ZM309.264 24.3569H314.915L336.479 73.933H329.34L323.094 59.4093H300.936L294.764 73.933H287.625L309.264 24.3569ZM321.607 54.5215L312.089 31.6188L302.274 54.5215H321.607Z" fill="white"/>
<path d="M370.689 49.4326V73.2486H366.652V62.7494H353.864V73.2486H349.863V49.4326H353.864V59.395H366.652V49.4326H370.689ZM384.061 73.584C382.609 73.584 381.288 73.3492 380.096 72.8796C378.93 72.3874 377.917 71.7281 377.06 70.9005C376.203 70.051 375.536 69.0892 375.06 68.0158C374.608 66.92 374.381 65.7572 374.381 64.5272C374.381 62.8724 374.786 61.363 375.596 59.9988C376.406 58.6124 377.537 57.5054 378.989 56.678C380.442 55.8283 382.145 55.4034 384.097 55.4034C386.05 55.4034 387.729 55.8283 389.134 56.678C390.563 57.5054 391.67 58.6012 392.456 59.9653C393.242 61.3294 393.635 62.7941 393.635 64.3595C393.635 64.6279 393.623 64.885 393.599 65.131C393.576 65.3547 393.552 65.5447 393.528 65.7012H378.56C378.632 66.7299 378.93 67.6356 379.453 68.4183C380.002 69.1788 380.692 69.7826 381.525 70.2296C382.359 70.6547 383.252 70.867 384.204 70.867C385.253 70.867 386.24 70.6212 387.169 70.129C388.122 69.6368 388.765 68.9885 389.098 68.1835L392.456 69.0892C392.051 69.9387 391.432 70.7102 390.598 71.4037C389.789 72.0745 388.825 72.6112 387.705 73.0138C386.586 73.3937 385.371 73.584 384.061 73.584ZM378.453 63.2526H389.741C389.67 62.2463 389.361 61.363 388.812 60.6026C388.289 59.82 387.61 59.2162 386.776 58.7913C385.967 58.344 385.062 58.1204 384.061 58.1204C383.085 58.1204 382.181 58.344 381.347 58.7913C380.537 59.2162 379.87 59.82 379.346 60.6026C378.823 61.363 378.525 62.2463 378.453 63.2526ZM395.483 68.1164C395.483 66.9983 395.816 66.0255 396.483 65.1981C397.173 64.3483 398.114 63.6998 399.305 63.2526C400.495 62.783 401.877 62.5481 403.449 62.5481C404.282 62.5481 405.127 62.6041 405.985 62.7159C406.866 62.8277 407.64 63.0066 408.307 63.2526V62.1456C408.307 60.9157 407.914 59.9541 407.128 59.2609C406.342 58.5676 405.211 58.221 403.734 58.221C402.687 58.221 401.698 58.3999 400.769 58.7577C399.841 59.0932 398.852 59.5739 397.805 60.2001L396.483 57.7179C397.721 56.9352 398.959 56.3537 400.198 55.9736C401.46 55.5935 402.782 55.4034 404.163 55.4034C406.663 55.4034 408.628 56.0295 410.057 57.2818C411.51 58.5118 412.236 60.2672 412.236 62.5481V69.0892C412.236 69.5143 412.307 69.8162 412.45 69.9948C412.617 70.1735 412.891 70.2741 413.272 70.2967V73.2486C412.915 73.3156 412.593 73.3601 412.307 73.3827C412.022 73.4053 411.783 73.4163 411.593 73.4163C410.76 73.4163 410.128 73.226 409.7 72.846C409.271 72.4661 409.021 72.0184 408.95 71.5043L408.842 70.498C408.032 71.4817 406.997 72.2423 405.735 72.779C404.473 73.3157 403.198 73.584 401.913 73.584C400.674 73.584 399.567 73.3492 398.59 72.8796C397.614 72.3874 396.852 71.7281 396.304 70.9005C395.757 70.0729 395.483 69.1453 395.483 68.1164ZM407.378 69.1898C407.664 68.8988 407.89 68.6086 408.057 68.3176C408.223 68.0269 408.307 67.7698 408.307 67.5461V65.5335C407.64 65.2876 406.938 65.1086 406.199 64.9968C405.461 64.8627 404.734 64.7956 404.02 64.7956C402.591 64.7956 401.424 65.0639 400.519 65.6006C399.638 66.1373 399.198 66.8753 399.198 67.8145C399.198 68.3288 399.341 68.8208 399.626 69.2904C399.936 69.76 400.365 70.14 400.912 70.4309C401.484 70.7218 402.187 70.867 403.02 70.867C403.877 70.867 404.699 70.7102 405.485 70.3974C406.271 70.0845 406.902 69.682 407.378 69.1898ZM417.039 48.7617H420.968V68.1835C420.968 69.0782 421.111 69.6484 421.397 69.8942C421.682 70.14 422.04 70.2632 422.468 70.2632C422.945 70.2632 423.385 70.2187 423.79 70.129C424.219 70.0393 424.588 69.9277 424.897 69.7936L425.469 72.7119C424.897 72.9357 424.219 73.1253 423.433 73.2821C422.647 73.4389 421.945 73.5169 421.325 73.5169C419.992 73.5169 418.944 73.1705 418.182 72.4771C417.42 71.7617 417.039 70.7773 417.039 69.5252V48.7617ZM438.037 72.3429C437.704 72.4997 437.287 72.6674 436.787 72.846C436.287 73.0247 435.716 73.1815 435.073 73.3156C434.454 73.4498 433.811 73.5169 433.144 73.5169C432.334 73.5169 431.584 73.3827 430.893 73.1144C430.203 72.846 429.643 72.4209 429.214 71.8397C428.81 71.2359 428.607 70.4644 428.607 69.5252V58.5565H426.142V55.7052H428.607V49.9357H432.536V55.7052H436.609V58.5565H432.536V68.3512C432.584 68.955 432.786 69.402 433.144 69.6929C433.525 69.9839 433.989 70.129 434.537 70.129C435.084 70.129 435.608 70.0393 436.109 69.8607C436.609 69.682 436.977 69.5362 437.216 69.4246L438.037 72.3429ZM457.512 73.2486H453.583V63.4203C453.583 61.8326 453.273 60.6473 452.654 59.8647C452.035 59.082 451.165 58.6906 450.046 58.6906C449.356 58.6906 448.642 58.8695 447.903 59.2273C447.165 59.5851 446.51 60.0771 445.938 60.7032C445.367 61.307 444.95 62.0114 444.688 62.8165V73.2486H440.759V48.7617H444.688V59.2273C445.403 58.0421 446.379 57.1141 447.617 56.4432C448.856 55.7499 450.189 55.4034 451.618 55.4034C452.785 55.4034 453.75 55.5935 454.511 55.9736C455.273 56.3537 455.869 56.8793 456.297 57.5501C456.75 58.1986 457.059 58.959 457.226 59.8311C457.416 60.6809 457.512 61.5865 457.512 62.5481V73.2486Z" fill="#EA3F3F"/>
<path d="M154.421 94.6922H147.313L145.782 97.8925H144.379L150.211 85.9126H151.541L157.373 97.8925H155.952L154.421 94.6922ZM153.929 93.6653L150.867 87.2304L147.805 93.6653H153.929ZM159.21 85.1938H160.504V97.8925H159.21V85.1938ZM164.105 85.1938H165.399V97.8925H164.105V85.1938ZM174.043 85.9126H175.391V97.8925H174.043V85.9126ZM184.153 88.822C185.356 88.822 186.31 89.1527 187.015 89.8147C187.731 90.465 188.09 91.4179 188.09 92.6727V97.8925H186.796V92.7925C186.796 91.8567 186.547 91.1441 186.049 90.6532C185.55 90.1624 184.839 89.9173 183.916 89.9173C182.883 89.9173 182.063 90.2083 181.456 90.7902C180.86 91.3604 180.563 92.1538 180.563 93.169V97.8925H179.269V88.8905H180.508V90.5506C180.86 90.0029 181.347 89.5805 181.966 89.2841C182.598 88.9761 183.327 88.822 184.153 88.822ZM200.386 85.1938V97.8925H199.147V96.1126C198.758 96.7171 198.242 97.1792 197.597 97.4989C196.966 97.8186 196.249 97.9781 195.447 97.9781C194.548 97.9781 193.734 97.7843 193.005 97.3962C192.276 97.008 191.705 96.4666 191.292 95.7704C190.879 95.0742 190.672 94.2814 190.672 93.3915C190.672 92.5016 190.879 91.7088 191.292 91.0126C191.705 90.3164 192.276 89.7804 193.005 89.4039C193.734 89.0158 194.548 88.822 195.447 88.822C196.225 88.822 196.923 88.9761 197.543 89.2841C198.175 89.5805 198.691 90.02 199.092 90.6019V85.1938H200.386ZM195.556 96.8999C196.225 96.8999 196.826 96.7575 197.361 96.472C197.907 96.1756 198.333 95.7587 198.636 95.2227C198.953 94.6867 199.11 94.0761 199.11 93.3915C199.11 92.7069 198.953 92.0963 198.636 91.5603C198.333 91.0243 197.907 90.6135 197.361 90.3281C196.826 90.0317 196.225 89.8831 195.556 89.8831C194.876 89.8831 194.262 90.0317 193.716 90.3281C193.181 90.6135 192.756 91.0243 192.44 91.5603C192.137 92.0963 191.984 92.7069 191.984 93.3915C191.984 94.0761 192.137 94.6867 192.44 95.2227C192.756 95.7587 193.181 96.1756 193.716 96.472C194.262 96.7575 194.876 96.8999 195.556 96.8999ZM203.99 88.8905H205.284V97.8925H203.99V88.8905ZM204.646 86.9224C204.379 86.9224 204.154 86.8368 203.972 86.6657C203.79 86.4945 203.698 86.2891 203.698 86.0496C203.698 85.8216 203.79 85.6217 203.972 85.4506C204.154 85.2794 204.379 85.1938 204.646 85.1938C204.913 85.1938 205.138 85.2794 205.321 85.4506C205.503 85.6101 205.594 85.8045 205.594 86.0324C205.594 86.2837 205.503 86.4945 205.321 86.6657C205.138 86.8368 204.913 86.9224 204.646 86.9224ZM212.238 88.822C213.489 88.822 214.449 89.1185 215.118 89.712C215.785 90.2939 216.12 91.1612 216.12 92.3133V97.8925H214.881V96.4892C214.589 96.9567 214.157 97.3223 213.587 97.5845C213.028 97.8466 212.359 97.9781 211.582 97.9781C210.512 97.9781 209.662 97.7385 209.03 97.2593C208.398 96.7801 208.083 96.1469 208.083 95.3596C208.083 94.595 208.374 93.9789 208.958 93.5113C209.552 93.0437 210.494 92.8096 211.782 92.8096H214.826V92.262C214.826 91.4864 214.595 90.8983 214.133 90.4992C213.671 90.0885 212.997 89.8831 212.11 89.8831C211.502 89.8831 210.919 89.9803 210.361 90.1741C209.802 90.3568 209.322 90.6135 208.921 90.9442L208.338 90.0371C208.823 89.649 209.407 89.3526 210.087 89.1472C210.768 88.9302 211.484 88.822 212.238 88.822ZM211.782 97.0197C212.511 97.0197 213.137 96.8657 213.66 96.5576C214.182 96.2379 214.571 95.782 214.826 95.1885V93.7167H211.819C210.179 93.7167 209.358 94.2527 209.358 95.3254C209.358 95.8505 209.571 96.2667 209.996 96.5747C210.421 96.8711 211.017 97.0197 211.782 97.0197ZM242.192 85.9126L237.891 97.8925H236.469L232.733 87.6754L228.979 97.8925H227.575L223.274 85.9126H224.659L228.341 96.2153L232.15 85.9126H233.408L237.162 96.2667L240.898 85.9126H242.192ZM252.009 93.768H243.99C244.063 94.7038 244.445 95.4623 245.138 96.0442C245.83 96.6144 246.705 96.8999 247.762 96.8999C248.357 96.8999 248.904 96.8027 249.403 96.609C249.9 96.4036 250.332 96.1072 250.697 95.719L251.426 96.5063C251 96.9855 250.465 97.3503 249.822 97.6016C249.19 97.8528 248.491 97.9781 247.726 97.9781C246.742 97.9781 245.867 97.7843 245.101 97.3962C244.348 96.9971 243.759 96.4494 243.334 95.7532C242.908 95.057 242.696 94.2698 242.696 93.3915C242.696 92.5132 242.896 91.726 243.297 91.0298C243.71 90.3336 244.269 89.7921 244.974 89.4039C245.69 89.0158 246.492 88.822 247.38 88.822C248.266 88.822 249.062 89.0158 249.767 89.4039C250.471 89.7921 251.025 90.3336 251.426 91.0298C251.826 91.7143 252.027 92.5016 252.027 93.3915L252.009 93.768ZM247.38 89.866C246.456 89.866 245.678 90.1453 245.047 90.7046C244.427 91.2522 244.074 91.971 243.99 92.861H250.788C250.702 91.971 250.344 91.2522 249.712 90.7046C249.093 90.1453 248.315 89.866 247.38 89.866ZM254.661 85.1938H255.955V97.8925H254.661V85.1938ZM259.555 85.1938H260.849V97.8925H259.555V85.1938ZM269.333 88.822C270.536 88.822 271.491 89.1527 272.195 89.8147C272.912 90.465 273.27 91.4179 273.27 92.6727V97.8925H271.976V92.7925C271.976 91.8567 271.727 91.1441 271.229 90.6532C270.731 90.1624 270.02 89.9173 269.096 89.9173C268.064 89.9173 267.244 90.2083 266.636 90.7902C266.041 91.3604 265.743 92.1538 265.743 93.169V97.8925H264.449V88.8905H265.688V90.5506C266.041 90.0029 266.527 89.5805 267.146 89.2841C267.778 88.9761 268.507 88.822 269.333 88.822ZM285.166 93.768H277.147C277.22 94.7038 277.602 95.4623 278.295 96.0442C278.988 96.6144 279.862 96.8999 280.919 96.8999C281.515 96.8999 282.062 96.8027 282.56 96.609C283.058 96.4036 283.489 96.1072 283.854 95.719L284.583 96.5063C284.158 96.9855 283.623 97.3503 282.979 97.6016C282.347 97.8528 281.648 97.9781 280.883 97.9781C279.899 97.9781 279.024 97.7843 278.259 97.3962C277.506 96.9971 276.916 96.4494 276.491 95.7532C276.066 95.057 275.853 94.2698 275.853 93.3915C275.853 92.5132 276.053 91.726 276.454 91.0298C276.868 90.3336 277.426 89.7921 278.131 89.4039C278.848 89.0158 279.65 88.822 280.537 88.822C281.424 88.822 282.219 89.0158 282.924 89.4039C283.629 89.7921 284.182 90.3336 284.583 91.0298C284.984 91.7143 285.184 92.5016 285.184 93.3915L285.166 93.768ZM280.537 89.866C279.613 89.866 278.836 90.1453 278.204 90.7046C277.584 91.2522 277.232 91.971 277.147 92.861H283.945C283.859 91.971 283.502 91.2522 282.87 90.7046C282.25 90.1453 281.472 89.866 280.537 89.866ZM290.388 97.9781C289.61 97.9781 288.863 97.8754 288.146 97.67C287.441 97.453 286.889 97.1854 286.488 96.8657L287.071 95.9073C287.472 96.2037 287.976 96.4495 288.583 96.6432C289.191 96.826 289.823 96.917 290.479 96.917C291.354 96.917 291.997 96.7917 292.411 96.5405C292.836 96.2783 293.049 95.9128 293.049 95.4452C293.049 95.1146 292.933 94.8578 292.702 94.6751C292.471 94.4813 292.18 94.3383 291.827 94.2472C291.475 94.1445 291.007 94.0473 290.424 93.9563C289.646 93.8194 289.021 93.6824 288.547 93.5455C288.073 93.397 287.666 93.1519 287.326 92.8096C286.998 92.4673 286.834 91.9936 286.834 91.3892C286.834 90.6361 287.168 90.02 287.836 89.5408C288.505 89.0616 289.434 88.822 290.625 88.822C291.244 88.822 291.864 88.9021 292.484 89.0616C293.103 89.2102 293.614 89.4094 294.015 89.6606L293.45 90.6361C292.66 90.1227 291.718 89.866 290.625 89.866C289.799 89.866 289.172 90.0029 288.747 90.2767C288.334 90.5506 288.128 90.91 288.128 91.3549C288.128 91.6972 288.243 91.971 288.474 92.1764C288.717 92.3818 289.015 92.5358 289.367 92.6385C289.719 92.7295 290.205 92.8267 290.825 92.9294C291.591 93.0663 292.204 93.2033 292.666 93.3402C293.127 93.4771 293.522 93.7112 293.85 94.0418C294.179 94.3725 294.343 94.8291 294.343 95.411C294.343 96.1982 293.99 96.826 293.285 97.2935C292.593 97.7501 291.627 97.9781 290.388 97.9781ZM299.304 97.9781C298.527 97.9781 297.78 97.8754 297.062 97.67C296.358 97.453 295.805 97.1854 295.404 96.8657L295.987 95.9073C296.388 96.2037 296.893 96.4495 297.5 96.6432C298.108 96.826 298.739 96.917 299.395 96.917C300.27 96.917 300.915 96.7917 301.327 96.5405C301.753 96.2783 301.965 95.9128 301.965 95.4452C301.965 95.1146 301.85 94.8578 301.619 94.6751C301.388 94.4813 301.097 94.3383 300.744 94.2472C300.392 94.1445 299.924 94.0473 299.341 93.9563C298.563 93.8194 297.937 93.6824 297.463 93.5455C296.99 93.397 296.583 93.1519 296.242 92.8096C295.914 92.4673 295.75 91.9936 295.75 91.3892C295.75 90.6361 296.085 90.02 296.753 89.5408C297.421 89.0616 298.351 88.822 299.541 88.822C300.161 88.822 300.78 88.9021 301.4 89.0616C302.02 89.2102 302.53 89.4094 302.931 89.6606L302.366 90.6361C301.576 90.1227 300.635 89.866 299.541 89.866C298.715 89.866 298.09 90.0029 297.664 90.2767C297.251 90.5506 297.044 90.91 297.044 91.3549C297.044 91.6972 297.16 91.971 297.39 92.1764C297.634 92.3818 297.931 92.5358 298.284 92.6385C298.636 92.7295 299.122 92.8267 299.742 92.9294C300.507 93.0663 301.121 93.2033 301.582 93.3402C302.044 93.4771 302.439 93.7112 302.767 94.0418C303.095 94.3725 303.259 94.8291 303.259 95.411C303.259 96.1982 302.907 96.826 302.202 97.2935C301.509 97.7501 300.543 97.9781 299.304 97.9781ZM318.696 94.6922H311.588L310.057 97.8925H308.654L314.486 85.9126H315.816L321.648 97.8925H320.226L318.696 94.6922ZM318.204 93.6653L315.142 87.2304L312.08 93.6653H318.204ZM325.966 97.9781C325.188 97.9781 324.441 97.8754 323.724 97.67C323.019 97.453 322.467 97.1854 322.066 96.8657L322.649 95.9073C323.05 96.2037 323.554 96.4495 324.162 96.6432C324.769 96.826 325.401 96.917 326.057 96.917C326.932 96.917 327.576 96.7917 327.989 96.5405C328.414 96.2783 328.627 95.9128 328.627 95.4452C328.627 95.1146 328.511 94.8578 328.28 94.6751C328.049 94.4813 327.758 94.3383 327.406 94.2472C327.053 94.1445 326.586 94.0473 326.002 93.9563C325.225 93.8194 324.599 93.6824 324.125 93.5455C323.651 93.397 323.244 93.1519 322.904 92.8096C322.576 92.4673 322.412 91.9936 322.412 91.3892C322.412 90.6361 322.746 90.02 323.414 89.5408C324.082 89.0616 325.012 88.822 326.203 88.822C326.822 88.822 327.442 88.9021 328.062 89.0616C328.681 89.2102 329.192 89.4094 329.593 89.6606L329.028 90.6361C328.237 90.1227 327.296 89.866 326.203 89.866C325.376 89.866 324.751 90.0029 324.326 90.2767C323.912 90.5506 323.706 90.91 323.706 91.3549C323.706 91.6972 323.821 91.971 324.052 92.1764C324.295 92.3818 324.592 92.5358 324.945 92.6385C325.297 92.7295 325.784 92.8267 326.403 92.9294C327.169 93.0663 327.782 93.2033 328.244 93.3402C328.706 93.4771 329.101 93.7112 329.429 94.0418C329.757 94.3725 329.921 94.8291 329.921 95.411C329.921 96.1982 329.568 96.826 328.864 97.2935C328.171 97.7501 327.205 97.9781 325.966 97.9781ZM334.882 97.9781C334.104 97.9781 333.357 97.8754 332.641 97.67C331.936 97.453 331.383 97.1854 330.982 96.8657L331.565 95.9073C331.966 96.2037 332.471 96.4495 333.078 96.6432C333.685 96.826 334.317 96.917 334.973 96.917C335.848 96.917 336.492 96.7917 336.905 96.5405C337.33 96.2783 337.543 95.9128 337.543 95.4452C337.543 95.1146 337.428 94.8578 337.197 94.6751C336.966 94.4813 336.674 94.3383 336.322 94.2472C335.97 94.1445 335.502 94.0473 334.919 93.9563C334.141 93.8194 333.515 93.6824 333.042 93.5455C332.568 93.397 332.161 93.1519 331.821 92.8096C331.492 92.4673 331.328 91.9936 331.328 91.3892C331.328 90.6361 331.662 90.02 332.331 89.5408C332.999 89.0616 333.929 88.822 335.119 88.822C335.739 88.822 336.359 88.9021 336.978 89.0616C337.598 89.2102 338.108 89.4094 338.509 89.6606L337.944 90.6361C337.155 90.1227 336.213 89.866 335.119 89.866C334.293 89.866 333.667 90.0029 333.242 90.2767C332.829 90.5506 332.622 90.91 332.622 91.3549C332.622 91.6972 332.738 91.971 332.969 92.1764C333.211 92.3818 333.51 92.5358 333.862 92.6385C334.214 92.7295 334.7 92.8267 335.32 92.9294C336.085 93.0663 336.699 93.2033 337.16 93.3402C337.622 93.4771 338.017 93.7112 338.345 94.0418C338.673 94.3725 338.837 94.8291 338.837 95.411C338.837 96.1982 338.485 96.826 337.78 97.2935C337.088 97.7501 336.122 97.9781 334.882 97.9781ZM345.148 97.9781C344.224 97.9781 343.392 97.7843 342.651 97.3962C341.91 96.9971 341.327 96.4494 340.902 95.7532C340.476 95.057 340.264 94.2698 340.264 93.3915C340.264 92.5132 340.476 91.726 340.902 91.0298C341.327 90.3336 341.91 89.7921 342.651 89.4039C343.392 89.0158 344.224 88.822 345.148 88.822C346.071 88.822 346.904 89.0158 347.645 89.4039C348.386 89.7921 348.963 90.3336 349.376 91.0298C349.801 91.726 350.014 92.5132 350.014 93.3915C350.014 94.2698 349.801 95.057 349.376 95.7532C348.963 96.4494 348.386 96.9971 347.645 97.3962C346.904 97.7843 346.071 97.9781 345.148 97.9781ZM345.148 96.8999C345.828 96.8999 346.436 96.7575 346.971 96.472C347.517 96.1756 347.942 95.7587 348.246 95.2227C348.55 94.6867 348.702 94.0761 348.702 93.3915C348.702 92.7069 348.55 92.0963 348.246 91.5603C347.942 91.0243 347.517 90.6135 346.971 90.3281C346.436 90.0317 345.828 89.8831 345.148 89.8831C344.467 89.8831 343.854 90.0317 343.307 90.3281C342.772 90.6135 342.347 91.0243 342.032 91.5603C341.728 92.0963 341.576 92.7069 341.576 93.3915C341.576 94.0761 341.728 94.6867 342.032 95.2227C342.347 95.7587 342.772 96.1756 343.307 96.472C343.854 96.7575 344.467 96.8999 345.148 96.8999ZM356.628 97.9781C355.681 97.9781 354.831 97.7843 354.077 97.3962C353.336 97.008 352.753 96.4666 352.327 95.7704C351.902 95.0632 351.689 94.2698 351.689 93.3915C351.689 92.5132 351.902 91.726 352.327 91.0298C352.753 90.3336 353.336 89.7921 354.077 89.4039C354.831 89.0158 355.681 88.822 356.628 88.822C357.455 88.822 358.19 88.9761 358.834 89.2841C359.49 89.5805 360.007 90.02 360.383 90.6019L359.417 91.218C359.101 90.773 358.7 90.4424 358.214 90.2254C357.729 89.9974 357.2 89.8831 356.628 89.8831C355.936 89.8831 355.31 90.0317 354.751 90.3281C354.205 90.6135 353.774 91.0243 353.457 91.5603C353.154 92.0963 353.002 92.7069 353.002 93.3915C353.002 94.0877 353.154 94.7038 353.457 95.2398C353.774 95.7649 354.205 96.1756 354.751 96.472C355.31 96.7575 355.936 96.8999 356.628 96.8999C357.2 96.8999 357.729 96.7917 358.214 96.5747C358.7 96.3577 359.101 96.0271 359.417 95.5821L360.383 96.1982C360.007 96.7801 359.49 97.2251 358.834 97.5331C358.178 97.8295 357.443 97.9781 356.628 97.9781ZM362.925 88.8905H364.219V97.8925H362.925V88.8905ZM363.581 86.9224C363.314 86.9224 363.089 86.8368 362.907 86.6657C362.724 86.4945 362.633 86.2891 362.633 86.0496C362.633 85.8216 362.724 85.6217 362.907 85.4506C363.089 85.2794 363.314 85.1938 363.581 85.1938C363.848 85.1938 364.073 85.2794 364.255 85.4506C364.437 85.6101 364.529 85.8045 364.529 86.0324C364.529 86.2837 364.437 86.4945 364.255 86.6657C364.073 86.8368 363.848 86.9224 363.581 86.9224ZM371.173 88.822C372.424 88.822 373.384 89.1185 374.052 89.712C374.721 90.2939 375.055 91.1612 375.055 92.3133V97.8925H373.815V96.4892C373.524 96.9567 373.092 97.3223 372.521 97.5845C371.962 97.8466 371.295 97.9781 370.517 97.9781C369.447 97.9781 368.597 97.7385 367.965 97.2593C367.333 96.7801 367.017 96.1469 367.017 95.3596C367.017 94.595 367.309 93.9789 367.892 93.5113C368.488 93.0437 369.429 92.8096 370.717 92.8096H373.761V92.262C373.761 91.4864 373.53 90.8983 373.068 90.4992C372.607 90.0885 371.932 89.8831 371.045 89.8831C370.438 89.8831 369.855 89.9803 369.296 90.1741C368.736 90.3568 368.257 90.6135 367.856 90.9442L367.273 90.0371C367.759 89.649 368.342 89.3526 369.022 89.1472C369.702 88.9302 370.42 88.822 371.173 88.822ZM370.717 97.0197C371.446 97.0197 372.072 96.8657 372.594 96.5576C373.117 96.2379 373.506 95.782 373.761 95.1885V93.7167H370.754C369.113 93.7167 368.293 94.2527 368.293 95.3254C368.293 95.8505 368.506 96.2667 368.931 96.5747C369.356 96.8711 369.952 97.0197 370.717 97.0197ZM383.618 97.3449C383.375 97.5502 383.071 97.7097 382.706 97.824C382.354 97.9267 381.984 97.9781 381.595 97.9781C380.696 97.9781 380.003 97.7501 379.517 97.2935C379.031 96.8369 378.788 96.1927 378.788 95.3596V89.9173H377.075V88.8905H378.788V86.9224H380.082V88.8905H382.998V89.9173H380.082V95.2912C380.082 95.8272 380.222 96.2379 380.501 96.5234C380.793 96.7972 381.206 96.9341 381.74 96.9341C382.008 96.9341 382.263 96.8944 382.506 96.8143C382.761 96.7342 382.98 96.6206 383.162 96.472L383.618 97.3449ZM385.973 88.8905H387.267V97.8925H385.973V88.8905ZM386.629 86.9224C386.362 86.9224 386.137 86.8368 385.955 86.6657C385.772 86.4945 385.681 86.2891 385.681 86.0496C385.681 85.8216 385.772 85.6217 385.955 85.4506C386.137 85.2794 386.362 85.1938 386.629 85.1938C386.897 85.1938 387.121 85.2794 387.303 85.4506C387.486 85.6101 387.577 85.8045 387.577 86.0324C387.577 86.2837 387.486 86.4945 387.303 86.6657C387.121 86.8368 386.897 86.9224 386.629 86.9224ZM394.786 97.9781C393.863 97.9781 393.03 97.7843 392.289 97.3962C391.548 96.9971 390.965 96.4494 390.539 95.7532C390.114 95.057 389.902 94.2698 389.902 93.3915C389.902 92.5132 390.114 91.726 390.539 91.0298C390.965 90.3336 391.548 89.7921 392.289 89.4039C393.03 89.0158 393.863 88.822 394.786 88.822C395.71 88.822 396.542 89.0158 397.283 89.4039C398.024 89.7921 398.601 90.3336 399.014 91.0298C399.44 91.726 399.652 92.5132 399.652 93.3915C399.652 94.2698 399.44 95.057 399.014 95.7532C398.601 96.4494 398.024 96.9971 397.283 97.3962C396.542 97.7843 395.71 97.9781 394.786 97.9781ZM394.786 96.8999C395.467 96.8999 396.074 96.7575 396.608 96.472C397.155 96.1756 397.581 95.7587 397.884 95.2227C398.188 94.6867 398.34 94.0761 398.34 93.3915C398.34 92.7069 398.188 92.0963 397.884 91.5603C397.581 91.0243 397.155 90.6135 396.608 90.3281C396.074 90.0317 395.467 89.8831 394.786 89.8831C394.106 89.8831 393.492 90.0317 392.945 90.3281C392.411 90.6135 391.986 91.0243 391.669 91.5603C391.366 92.0963 391.214 92.7069 391.214 93.3915C391.214 94.0761 391.366 94.6867 391.669 95.2227C391.986 95.7587 392.411 96.1756 392.945 96.472C393.492 96.7575 394.106 96.8999 394.786 96.8999ZM407.178 88.822C408.381 88.822 409.335 89.1527 410.039 89.8147C410.757 90.465 411.115 91.4179 411.115 92.6727V97.8925H409.821V92.7925C409.821 91.8567 409.572 91.1441 409.074 90.6532C408.576 90.1624 407.865 89.9173 406.941 89.9173C405.909 89.9173 405.089 90.2083 404.481 90.7902C403.886 91.3604 403.588 92.1538 403.588 93.169V97.8925H402.294V88.8905H403.533V90.5506C403.886 90.0029 404.371 89.5805 404.991 89.2841C405.623 88.9761 406.352 88.822 407.178 88.822Z" fill="white"/>
<path d="M52.1236 0C80.9104 0 104.247 21.914 104.247 48.9463V54.8099H91.1493L86.2183 43.189C86.0076 42.6943 85.6387 42.2707 85.1605 41.9757C84.6823 41.6806 84.118 41.5276 83.5436 41.5378C82.9684 41.548 82.4114 41.7207 81.9456 42.0325C81.4805 42.3443 81.1284 42.7808 80.9389 43.2826L70.9858 69.6441L61.9302 34.8506C61.7877 34.306 61.4587 33.8181 60.9927 33.46C60.5267 33.1021 59.9481 32.8929 59.3431 32.8631C58.7381 32.8333 58.1391 32.9847 57.6346 33.2949C57.1301 33.6051 56.7469 34.0571 56.5425 34.5845L48.8403 54.5565C46.0976 54.553 44.3569 54.0841 42.5135 52.8064C41.9726 52.1847 41.32 51.654 40.5842 51.2373L40.4204 51.0842V51.1451C39.2789 50.5362 37.9843 50.2161 36.6665 50.2165C35.3488 50.2169 34.0544 50.5376 32.9133 51.147C31.7723 51.7566 30.8247 52.6334 30.166 53.6888C29.5072 54.7443 29.1601 55.9417 29.1601 57.1604C29.1601 58.3791 29.5072 59.5766 30.166 60.632C30.8247 61.6874 31.7723 62.5642 32.9133 63.1737C34.0544 63.7832 35.3488 64.1039 36.6665 64.1043C37.9843 64.1047 39.2789 63.7846 40.4204 63.1757V63.2366L40.5877 63.0835C41.2822 62.6894 41.9019 62.1933 42.4237 61.6187C44.132 60.473 45.7369 60.0819 48.1134 60.0177H50.7304C51.3111 60.0173 51.8777 59.8512 52.3522 59.5416C52.8266 59.2322 53.1858 58.7946 53.3809 58.2889L58.6697 44.5742L67.7516 79.4703C67.8943 80.0166 68.2246 80.5061 68.6927 80.8648C69.1608 81.2235 69.7417 81.4316 70.3487 81.4597C70.9558 81.4877 71.5565 81.333 72.0608 81.0195C72.565 80.7053 72.9461 80.2494 73.1466 79.7188L83.7514 51.6331L86.609 58.3651C86.8153 58.8521 87.1762 59.2703 87.6435 59.5651C88.1108 59.8599 88.6634 60.0176 89.2291 60.0177H104.247V97.8926H52.1236C23.3365 97.8926 0 75.9784 0 48.9463C0 21.914 23.3365 0 52.1236 0Z" fill="#EA3F3F"/>
</svg>
