<svg width="57" height="63" viewBox="0 0 57 63" fill="none" xmlns="http://www.w3.org/2000/svg">
<path d="M9.324 0H14.49L15.372 0.378L17.514 2.52L18.144 2.394L20.16 1.386L20.412 1.26H21.924L22.68 1.638L23.562 2.898L24.318 4.158L24.444 5.418L24.066 6.426L23.058 7.434L22.302 8.568L23.058 8.694L24.696 9.324L26.208 10.332L27.09 11.088L27.972 12.096L28.98 14.112L29.484 15.75L29.61 16.506V18.396L29.232 20.286L31.248 21.294L31.626 21.42L32.634 20.538L33.768 20.286L35.91 20.79L36.918 19.782L36.288 18.522V17.388L36.792 16.38L37.926 15.498L38.934 14.742L40.068 14.49L41.076 14.742L41.832 15.372L42.462 16.884L43.092 18.396V18.648L44.226 18.27L45.36 17.01L46.116 15.876L47.376 14.112L48.258 13.23L49.518 12.348L51.03 11.592L52.038 11.34H53.802L55.062 11.718L56.196 12.474L56.826 13.482L56.952 13.986V17.262L56.448 18.27L55.692 18.9L54.558 19.278L53.802 19.782L53.298 20.664L53.046 23.184L52.416 25.83L51.156 29.484L50.148 30.366L49.77 30.492H48.636L47.628 29.988L45.36 28.476L44.604 27.594L44.478 27.216V26.208L44.856 24.948L44.352 25.2H42.966L41.58 24.444L40.95 24.696V25.2L41.832 26.334L42.336 26.838L43.47 28.854L43.722 29.484V30.87L43.218 31.752L42.462 32.382L41.706 32.634H40.446L40.068 32.76L39.69 33.642L39.312 35.154L38.556 36.162L33.138 41.58L32.13 42.462L30.996 43.596L29.61 44.73L28.098 45.99L27.342 46.62H27.09L27.846 49.014L27.972 49.77V52.29L27.342 54.684L26.586 56.574L26.334 57.582L26.208 59.346L25.83 60.102L25.074 60.732L23.31 61.236L22.176 62.748L21.546 63H19.278L18.27 62.496L17.514 61.614L17.262 60.858L17.01 58.59L16.254 56.574L14.742 53.676L13.482 51.534L12.978 50.778L12.6 49.896L11.592 47.754L10.962 45.864L10.332 42.84L9.954 39.69L9.702 36.162L8.694 37.296L7.812 37.8L7.308 37.926H6.048L4.158 37.296L2.772 36.414L1.764 35.406L1.512 34.65V33.642L2.016 32.634L2.394 32.256H2.646L2.016 31.626L0.756 30.87L0.252 30.24L0 29.61V28.602L0.378 27.72L1.638 26.46L2.268 26.208H3.654L4.284 26.46L3.276 25.2L2.52 24.066V22.428L4.032 19.53L4.662 19.026L5.292 18.774H6.552L7.56 19.278L8.064 18.396L9.324 16.758L9.828 16.002L10.332 15.498L10.962 14.616L11.592 13.23L12.474 11.718L10.584 10.332L9.45 9.576L8.946 8.946L8.82 8.568V7.182L8.946 6.678L7.686 5.796L6.93 4.914L6.804 4.662V3.15L7.686 1.638L8.694 0.252L9.324 0ZM10.206 2.268L9.198 3.654L9.45 4.158L10.836 5.166L11.34 5.922L11.466 6.678L11.34 7.938L12.474 8.82L14.238 10.08L14.868 9.828L16.632 8.946L18.648 8.442L19.656 8.316L20.412 6.93L21.42 5.67L22.05 5.166L21.798 4.536L21.168 3.654L18.774 4.788L18.27 4.914H16.884L16.002 4.536L13.734 2.268H10.206ZM18.9 10.584L17.514 10.962L15.876 11.844L14.616 12.978L13.608 14.364L12.978 15.876L12.852 16.38V18.27L13.482 20.16L14.49 22.176L16.128 24.948L17.514 27.09L18.522 28.602L19.656 30.24L20.286 30.366L21.294 29.106L22.68 27.09L22.932 26.46H23.184L23.94 25.074L25.704 22.05L26.712 20.034L27.342 18.018V16.758L26.964 15.372L26.208 13.86L25.074 12.474L23.688 11.466L22.68 10.962L21.294 10.584H18.9ZM52.542 13.734L51.156 14.238L49.896 15.12L49.14 15.75L47.88 17.766L46.872 19.152L45.99 20.034L45.108 20.538L43.974 20.916H42.714L41.706 20.538L40.95 19.656L40.194 17.64L39.942 17.01L38.934 17.766L38.808 18.144L39.312 19.152V20.412L38.808 21.168L38.178 21.924L37.044 22.806L36.162 23.058L35.028 22.932L33.642 22.554L33.264 23.184L32.634 23.562L32.13 23.688H30.87L28.854 22.68L28.476 22.428H28.098L26.712 25.074L25.452 26.964L25.2 27.342L25.326 27.846L26.082 29.358L26.334 30.366V32.76L25.83 34.272L25.074 35.532L24.444 36.288L23.562 36.792L22.428 37.422L20.916 37.8H19.278L17.766 37.422L16.506 36.792L15.372 35.91L14.616 34.902L13.986 33.516L13.734 32.382V30.618L14.112 29.106L14.868 27.72L14.994 27.468L13.23 24.696L11.718 21.546L10.962 19.656L10.836 19.152L10.458 19.278L9.45 20.664L8.568 21.42L7.812 21.672L6.678 21.546L5.922 21.168L4.914 23.058L5.166 23.562L6.678 25.704L6.93 26.838L6.552 27.972L5.796 28.602L5.544 28.728H3.906L2.898 28.476L2.394 29.106L4.536 30.618L5.04 31.374L5.166 31.752V32.76L4.662 33.768L4.032 34.398L5.292 35.28L6.426 35.658L7.308 35.532L7.938 34.272L8.568 33.768L8.946 33.642H10.206L10.962 34.02L11.844 34.902L12.096 35.532L12.348 39.06L12.474 41.454L13.104 44.856L13.86 47.124L15.12 49.518L16.884 52.542L17.514 53.55L18.018 54.81L18.9 56.826L19.404 58.716L19.53 60.228L20.16 60.858L20.79 60.732L21.546 59.598L22.68 58.842L23.814 58.464L24.066 56.574L24.948 54.054L25.578 52.164V50.4L25.074 48.258L24.696 47.25V45.99L25.074 45.234L26.334 44.226L27.972 42.966L29.358 41.706L30.366 40.824L32.13 39.06L33.138 38.178L35.28 36.036L36.162 35.028L37.17 34.02L37.8 32.004L38.682 30.87L39.942 30.366L41.328 30.24L40.446 28.476L38.934 26.46L38.43 25.578V24.318L38.934 23.436L39.942 22.554V22.302L40.698 22.05H42.21L43.596 22.806L44.352 22.68L44.856 22.554H45.864L46.872 23.058L47.376 23.94V25.452L46.998 26.712L49.014 27.972L49.266 28.098L49.77 26.586L50.274 24.57L50.778 22.302L51.03 19.908L51.534 18.774L52.416 17.766L54.18 16.884L54.684 16.758V14.238L53.676 13.734H52.542ZM23.562 29.736L22.554 31.248L22.05 31.878L21.168 32.382L20.538 32.508H19.53L18.522 32.13L17.766 31.248H17.514L17.262 30.744L16.632 29.862H16.38L16.002 31.122L16.128 32.508L16.884 34.02L17.892 35.028L19.026 35.532L20.286 35.658L21.42 35.406L22.554 34.776L23.436 33.894L24.066 32.382V30.618L23.688 29.736H23.562Z" fill="#EA3F3F"/>
<path d="M19.908 13.4821L21.672 13.7341L22.932 14.4901L23.814 15.6241L24.318 16.7581V18.9001L23.688 20.4121L23.058 20.9161L22.428 21.5461L21.294 22.0501L20.538 22.1761H19.53L18.27 21.7981L17.136 21.0421L16.506 20.4121L15.876 19.1521L15.75 18.5221V17.1361L16.128 16.0021L16.884 14.8681L18.018 13.9861L18.9 13.6081L19.908 13.4821ZM19.404 15.8761L18.648 16.3801L18.144 17.1361L18.018 18.1441L18.522 19.1521L19.152 19.6561L20.286 19.9081L21.168 19.5301L21.798 18.9001L22.05 18.3961V17.2621L21.546 16.5061L20.916 16.0021L20.664 15.8761H19.404Z" fill="#EA3F3F"/>
</svg>
