<svg width="68" height="68" viewBox="0 0 68 68" fill="none" xmlns="http://www.w3.org/2000/svg">
<path d="M63.8463 32.4042H63.2556L57.1366 14.5037L4.6165 32.4042L3.42828 32.3941M1.75 32.4075H3.42828L40.8405 2.52075L50.2959 15.7792" stroke="#EA3F3F" stroke-width="3.5" stroke-linecap="square"/>
<path d="M42.0289 48.7382C42.0289 50.9637 41.1448 53.0981 39.5711 54.6718C37.9974 56.2455 35.863 57.1296 33.6375 57.1296C31.412 57.1296 29.2776 56.2455 27.7039 54.6718C26.1302 53.0981 25.2461 50.9637 25.2461 48.7382C25.2461 46.5127 26.1302 44.3783 27.7039 42.8046C29.2776 41.2309 31.412 40.3468 33.6375 40.3468C35.863 40.3468 37.9974 41.2309 39.5711 42.8046C41.1448 44.3783 42.0289 46.5127 42.0289 48.7382Z" stroke="#EA3F3F" stroke-width="3.5" stroke-linecap="square"/>
<path d="M65.5246 31.9552V65.5208H1.75V31.9552H65.5246Z" stroke="#EA3F3F" stroke-width="3.5" stroke-linecap="square"/>
<path d="M1.75 31.9552H8.46311C8.46311 33.7356 7.75584 35.4431 6.49689 36.7021C5.23794 37.961 3.53043 38.6683 1.75 38.6683V31.9552ZM65.5246 31.9552H58.8115C58.8115 33.7356 59.5187 35.4431 60.7777 36.7021C62.0367 37.961 63.7442 38.6683 65.5246 38.6683V31.9552ZM1.75 65.5208H8.46983C8.47071 64.6381 8.2975 63.7638 7.96011 62.9482C7.62272 62.1325 7.12777 61.3913 6.50361 60.7672C5.87944 60.143 5.1383 59.6481 4.32261 59.3107C3.50693 58.9733 2.63271 58.8001 1.75 58.8009V65.5208ZM65.5246 65.5208H58.8115C58.8115 63.7403 59.5187 62.0328 60.7777 60.7739C62.0367 59.5149 63.7442 58.8077 65.5246 58.8077V65.5208Z" stroke="#EA3F3F" stroke-width="3.5" stroke-linecap="square"/>
</svg>
