<svg width="65" height="63" viewBox="0 0 65 63" fill="none" xmlns="http://www.w3.org/2000/svg">
<path d="M28.872 36.4865L22.6664 30.2429C22.3439 29.9174 21.9511 29.743 21.4881 29.7197C21.0228 29.6965 20.6001 29.8778 20.2201 30.2638C19.8515 30.6359 19.6672 31.0475 19.6672 31.4986C19.6672 31.9497 19.8515 32.3613 20.2201 32.7333L26.9163 39.4931C27.4761 40.0558 28.128 40.3372 28.872 40.3372C29.616 40.3372 30.2679 40.0558 30.8277 39.4931L44.7799 25.4085C45.1162 25.069 45.2925 24.6691 45.3086 24.2086C45.3247 23.7459 45.1485 23.3227 44.7799 22.939C44.3998 22.5553 43.9887 22.36 43.5464 22.353C43.1041 22.3461 42.6941 22.5344 42.3163 22.9181L28.872 36.4865ZM20.994 61.5513L16.4469 53.8777L7.8745 52.0499C7.18805 51.9221 6.64097 51.55 6.23325 50.9338C5.82554 50.3199 5.65738 49.6665 5.72879 48.9735L6.54768 40.0582L0.732511 33.3612C0.24417 32.8566 0 32.2357 0 31.4986C0 30.7615 0.24417 30.1406 0.732511 29.636L6.54768 22.939L5.72879 14.0271C5.65968 13.3319 5.82784 12.6773 6.23325 12.0634C6.64097 11.4495 7.18805 11.0775 7.8745 10.9472L16.4435 9.123L20.9906 1.44938C21.3638 0.826189 21.8648 0.396002 22.4936 0.158817C23.1225 -0.0806932 23.7732 -0.0493013 24.4458 0.252993L32.5 3.68868L40.5507 0.252993C41.2256 -0.0493013 41.8775 -0.0806932 42.5064 0.158817C43.1352 0.396002 43.6362 0.826189 44.0094 1.44938L48.5531 9.123L57.1255 10.9472C57.8119 11.0775 58.359 11.4495 58.7667 12.0634C59.1745 12.6773 59.3426 13.3319 59.2712 14.0271L58.4558 22.939L64.2675 29.636C64.7558 30.1406 65 30.7615 65 31.4986C65 32.2357 64.7558 32.8578 64.2675 33.3647L58.4558 40.0582L59.2712 48.97C59.3403 49.6653 59.1722 50.3199 58.7667 50.9338C58.359 51.55 57.8119 51.9221 57.1255 52.0499L48.5565 53.8777L44.0094 61.5513C43.6362 62.1722 43.1352 62.6023 42.5064 62.8419C41.8775 63.0814 41.2268 63.0488 40.5542 62.7442L32.5 59.3085L24.4493 62.7442C23.7744 63.0465 23.1225 63.0779 22.4936 62.8384C21.8648 62.6012 21.3638 62.171 20.9906 61.5478M23.6891 59.2283L32.5 55.5275L41.3523 59.2283L46.321 50.8571L55.8229 48.7259L54.9591 38.8234L61.3513 31.4986L54.9591 24.1354L55.8229 14.2329L46.321 12.1401L41.3109 3.76891L32.5 7.47318L23.6511 3.76891L18.679 12.1401L9.17712 14.2329L10.0409 24.1354L3.64873 31.4986L10.0409 38.8234L9.17712 48.7642L18.679 50.8571L23.6891 59.2283Z" fill="#EA3F3F"/>
</svg>
